<?xml version="1.0" encoding="UTF-8" standalone="no"?>
<svg width="144px" height="45px" viewBox="0 0 144 45" version="1.1" xmlns="http://www.w3.org/2000/svg" xmlns:xlink="http://www.w3.org/1999/xlink" xmlns:sketch="http://www.bohemiancoding.com/sketch/ns">
    <!-- Generator: Sketch 3.3 (11970) - http://www.bohemiancoding.com/sketch -->
    <title>Rectangle 342</title>
    <desc>Created with Sketch.</desc>
    <defs></defs>
    <g id="RC" stroke="none" stroke-width="1" fill="none" fill-rule="evenodd" sketch:type="MSPage">
        <g id="Group-2-Copy" sketch:type="MSLayerGroup" transform="translate(0.000000, 2.500000)">
            <g id="Group" transform="translate(0.000000, 3.333333)" sketch:type="MSShapeGroup">
                <path d="M29.458901,14.6666667 C28.4912729,8.22222222 23.0080468,3.33333333 16.772221,3.33333333 C16.1271356,3.33333333 15.4820502,3.33333333 14.7294505,3.44444444 C11.3965091,4 8.3861105,5.88888889 6.45085423,8.77777778 C4.40808373,11.6666667 3.54796983,15.2222222 4.08554102,18.8888889 C5.05316915,25.3333333 10.5363952,30.2222222 16.772221,30.2222222 C17.4173064,30.2222222 18.0623919,30.2222222 18.8149915,30.1111111 C22.1479329,29.5555556 25.1583315,27.6666667 27.0935878,24.7777778 C29.1363583,21.7777778 29.9964722,18.2222222 29.458901,14.6666667 L29.458901,14.6666667 Z" id="Shape"></path>
                <path d="M31.1791288,14.2222222 C29.9964722,6.55555556 23.545618,0.777777778 16.1271356,0.777777778 C15.3745359,0.777777778 14.514422,0.888888889 13.7618224,1 C9.78379559,1.66666667 6.34334,3.88888889 3.97802678,7.22222222 C1.61271356,10.6666667 0.537571186,14.8888889 1.29017085,19.1111111 C2.47282746,26.7777778 8.92368169,32.5555556 16.3421641,32.5555556 L16.3421641,32.5555556 C17.0947637,32.5555556 17.9548776,32.4444444 18.7074773,32.3333333 C22.6855041,31.6666667 26.1259596,29.4444444 28.4912729,26.1111111 C30.4265291,23.3333333 31.3941573,20.1111111 31.3941573,16.7777778 C31.3941573,15.8888889 31.286643,15.1111111 31.1791288,14.2222222 L31.1791288,14.2222222 Z M18.8149915,30 C18.1699061,30.1111111 17.5248207,30.1111111 16.772221,30.1111111 C10.5363952,30.1111111 5.05316915,25.2222222 4.08554102,18.7777778 C3.54796983,15.2222222 4.40808373,11.6666667 6.45085423,8.66666667 C8.49362474,5.77777778 11.3965091,3.88888889 14.7294505,3.33333333 C15.3745359,3.22222222 16.0196213,3.22222222 16.772221,3.22222222 C23.0080468,3.22222222 28.4912729,8.11111111 29.458901,14.5555556 C29.9964722,18.1111111 29.1363583,21.6666667 27.0935878,24.6666667 C25.0508173,27.5555556 22.1479329,29.4444444 18.8149915,30 L18.8149915,30 Z" id="Shape" fill="#993333"></path>
            </g>
            <g id="Group" transform="translate(6.450854, 0.000000)" sketch:type="MSShapeGroup">
                <path d="M3.11791288,14.1111111 C2.47282746,17.7777778 3.11791288,21.5555556 5.16068339,24.6666667 C7.09593966,27.7777778 10.1063383,29.7777778 13.5467939,30.4444444 C16.8797352,31.1111111 20.4277051,30.3333333 23.2230752,28.3333333 C26.2334739,26.2222222 28.2762444,23 29.0288441,19.2222222 C30.4265291,11.6666667 25.8034169,4.33333333 18.599963,2.88888889 C17.8473634,2.77777778 16.9872495,2.66666667 16.2346498,2.66666667 C13.6543081,2.66666667 11.0739664,3.44444444 8.92368169,5 C5.80576881,7.11111111 3.7629983,10.3333333 3.11791288,14.1111111 L3.11791288,14.1111111 Z" id="Shape"></path>
                <path d="M28.8138156,8 C26.5560166,4.33333333 23.0080468,2 18.9225058,1.11111111 C14.944479,0.333333333 10.858938,1.22222222 7.52599661,3.55555556 C3.97802678,6 1.61271356,9.77777778 0.860113898,14.2222222 C-0.752599661,23.1111111 4.73062644,31.6666667 13.1167369,33.3333333 C14.0843651,33.5555556 15.0519932,33.5555556 15.9121071,33.5555556 C18.9225058,33.5555556 21.9329044,32.5555556 24.5132461,30.7777778 C28.0612159,28.3333333 30.4265291,24.5555556 31.1791288,20.1111111 C31.9317285,16 31.0716146,11.6666667 28.8138156,8 L28.8138156,8 Z M18.599963,2.88888889 C25.6959027,4.33333333 30.4265291,11.6666667 29.0288441,19.2222222 C28.3837586,23 26.3409881,26.2222222 23.2230752,28.3333333 C20.3201908,30.3333333 16.8797352,31.1111111 13.5467939,30.4444444 C10.1063383,29.7777778 7.09593966,27.6666667 5.16068339,24.6666667 C3.22542712,21.5555556 2.47282746,17.8888889 3.11791288,14.1111111 C3.7629983,10.3333333 5.80576881,7.11111111 8.92368169,5 C11.0739664,3.44444444 13.6543081,2.66666667 16.2346498,2.66666667 C16.9872495,2.55555556 17.7398491,2.66666667 18.599963,2.88888889 L18.599963,2.88888889 Z" id="Shape" fill="#336699"></path>
            </g>
            <g id="Group" transform="translate(6.450854, 6.666667)" sketch:type="MSShapeGroup">
                <path d="M2.68785593,18.5555556 C3.22542712,22.1111111 5.05316915,25.2222222 7.84853932,27.3333333 C10.5363952,29.3333333 13.9768508,30.2222222 17.3097922,29.6666667 C20.6427335,29.1111111 23.545618,27.2222222 25.5883885,24.4444444 C27.631159,21.5555556 28.4912729,18 27.8461874,14.4444444 C27.3086163,10.8888889 25.4808742,7.77777778 22.6855041,5.66666667 C20.5352193,4 17.9548776,3.11111111 15.2670217,3.11111111 C14.6219363,3.11111111 13.9768508,3.11111111 13.2242512,3.22222222 C9.89130983,3.77777778 6.88091118,5.66666667 4.94565491,8.55555556 C2.90288441,11.5555556 2.15028474,15.1111111 2.68785593,18.5555556 L2.68785593,18.5555556 Z" id="Shape"></path>
                <path d="M30.8565861,14.2222222 C30.2115007,10 28.0612159,6.33333333 24.7282746,3.88888889 C21.5028474,1.44444444 17.5248207,0.444444444 13.6543081,1.11111111 C9.67628135,1.77777778 6.23582576,4 3.87051254,7.44444444 C1.50519932,10.8888889 0.537571186,15 1.18265661,19.1111111 C1.82774203,23.3333333 3.97802678,27 7.31096813,29.4444444 C9.89130983,31.3333333 12.9017085,32.4444444 16.0196213,32.4444444 C16.772221,32.4444444 17.6323349,32.3333333 18.3849346,32.2222222 C22.3629613,31.5555556 25.8034169,29.3333333 28.1687302,26 C30.1039864,23.3333333 31.0716146,20.1111111 31.0716146,16.7777778 C30.9641003,15.8888889 30.9641003,15 30.8565861,14.2222222 L30.8565861,14.2222222 Z M13.2242512,3.33333333 C13.8693366,3.22222222 14.514422,3.22222222 15.2670217,3.22222222 C17.9548776,3.22222222 20.5352193,4.11111111 22.6855041,5.77777778 C25.4808742,7.88888889 27.3086163,11 27.8461874,14.5555556 C28.3837586,18.1111111 27.5236447,21.6666667 25.5883885,24.5555556 C23.545618,27.4444444 20.6427335,29.2222222 17.3097922,29.7777778 C13.9768508,30.3333333 10.6439095,29.4444444 7.84853932,27.4444444 C5.05316915,25.3333333 3.22542712,22.2222222 2.68785593,18.6666667 C2.15028474,15.1111111 2.90288441,11.6666667 4.94565491,8.77777778 C6.98842542,5.77777778 9.89130983,3.88888889 13.2242512,3.33333333 L13.2242512,3.33333333 Z" id="Shape" fill="#99CC33"></path>
            </g>
            <g id="Group" transform="translate(44.080837, 8.888889)" fill="#000000" sketch:type="MSShapeGroup">
                <path d="M8.06356779,5.11111111 C8.27859627,5.77777778 8.3861105,6.44444444 8.49362474,7 C8.49362474,6.33333333 8.60113898,5.66666667 8.70865322,5.11111111 L9.67628135,0.777777778 L11.2889949,0.777777778 L9.2462244,8.66666667 L7.63351084,8.66666667 L6.23582576,3.55555556 C6.12831152,3.22222222 6.02079729,2.77777778 6.02079729,2.11111111 C6.02079729,2.66666667 5.91328305,3.11111111 5.80576881,3.55555556 L4.40808373,8.66666667 L2.79537017,8.66666667 L0.752599661,0.777777778 L2.36531322,0.777777778 L3.33294135,5.22222222 C3.44045559,5.77777778 3.54796983,6.33333333 3.54796983,7 C3.65548407,6.22222222 3.7629983,5.66666667 3.97802678,5.11111111 L5.05316915,0.777777778 L6.66588271,0.777777778 L8.06356779,5.11111111 L8.06356779,5.11111111 Z" id="Shape"></path>
                <path d="M19.03002,7.66666667 C18.2774203,8.44444444 17.202278,8.88888889 16.1271356,8.88888889 C15.1595075,8.88888889 14.2993936,8.55555556 13.5467939,7.88888889 C12.5791658,7.11111111 12.0415946,6 12.0415946,4.66666667 C12.0415946,3.55555556 12.4716515,2.55555556 13.2242512,1.77777778 C13.9768508,1 15.0519932,0.555555556 16.1271356,0.555555556 C17.202278,0.555555556 18.2774203,1 19.03002,1.77777778 C19.7826197,2.55555556 20.2126766,3.55555556 20.2126766,4.66666667 C20.2126766,5.88888889 19.7826197,6.88888889 19.03002,7.66666667 L19.03002,7.66666667 Z M18.599963,4.77777778 C18.599963,3.33333333 17.6323349,2.11111111 16.2346498,2.11111111 C14.8369647,2.11111111 13.8693366,3.33333333 13.8693366,4.77777778 C13.8693366,6.22222222 14.8369647,7.44444444 16.2346498,7.44444444 C17.6323349,7.44444444 18.599963,6.22222222 18.599963,4.77777778 L18.599963,4.77777778 Z" id="Shape"></path>
                <path d="M25.2658458,8.66666667 L23.2230752,5 L23.2230752,8.66666667 L21.6103617,8.66666667 L21.6103617,0.777777778 L23.9756749,0.777777778 C25.8034169,0.777777778 26.7710451,1.55555556 26.7710451,3 C26.7710451,4.11111111 26.0184454,4.88888889 25.0508173,5.11111111 L27.201102,8.66666667 L25.2658458,8.66666667 L25.2658458,8.66666667 Z M23.545618,4.11111111 C24.5132461,4.11111111 25.1583315,4 25.1583315,3.11111111 C25.1583315,2.22222222 24.6207603,2 23.545618,2 L23.3305895,2 L23.3305895,4.11111111 L23.545618,4.11111111 L23.545618,4.11111111 Z" id="Shape"></path>
                <path d="M28.1687302,0.777777778 L29.7814437,0.777777778 L29.7814437,7.22222222 L32.3617854,7.22222222 L32.3617854,8.66666667 L28.0612159,8.66666667 L28.0612159,0.777777778 L28.1687302,0.777777778 Z" id="Shape"></path>
                <path d="M33.4369278,0.777777778 L35.4796983,0.777777778 C36.7698691,0.777777778 37.8450115,0.888888889 38.7051254,1.55555556 C39.6727535,2.22222222 40.1028105,3.33333333 40.1028105,4.77777778 C40.1028105,6.22222222 39.5652393,7.33333333 38.7051254,8 C37.7374973,8.66666667 36.7698691,8.77777778 35.6947268,8.77777778 L35.1571556,8.77777778 L33.544442,8.77777778 L33.544442,0.777777778 L33.4369278,0.777777778 Z M36.0172695,7.22222222 C37.7374973,7.22222222 38.4900969,6.44444444 38.4900969,4.66666667 C38.4900969,2.88888889 37.629983,2.11111111 36.0172695,2.11111111 L35.1571556,2.11111111 L35.1571556,7.22222222 L36.0172695,7.22222222 L36.0172695,7.22222222 Z" id="Shape"></path>
                <path d="M51.2842912,5.11111111 C51.4993196,5.77777778 51.6068339,6.44444444 51.7143481,7 C51.7143481,6.33333333 51.8218623,5.66666667 51.9293766,5.11111111 L52.8970047,0.777777778 L54.5097183,0.777777778 L52.4669478,8.66666667 L50.8542342,8.66666667 L49.4565491,3.55555556 C49.3490349,3.22222222 49.2415207,2.77777778 49.2415207,2.11111111 C49.2415207,2.66666667 49.1340064,3.11111111 49.0264922,3.55555556 L47.6288071,8.66666667 L46.231122,8.66666667 L44.1883515,0.777777778 L45.8010651,0.777777778 L46.7686932,5.22222222 C46.8762074,5.77777778 46.9837217,6.33333333 46.9837217,7 C47.0912359,6.22222222 47.1987501,5.66666667 47.4137786,5.11111111 L48.488921,0.777777778 L50.1016346,0.777777778 L51.2842912,5.11111111 L51.2842912,5.11111111 Z" id="Shape"></path>
                <path d="M55.6923749,0.777777778 L57.3050884,0.777777778 L57.3050884,8.66666667 L55.6923749,8.66666667 L55.6923749,0.777777778 L55.6923749,0.777777778 Z" id="Shape"></path>
                <path d="M59.1328305,0.777777778 L61.175601,0.777777778 C62.4657718,0.777777778 63.5409142,0.888888889 64.4010281,1.55555556 C65.3686562,2.22222222 65.7987132,3.33333333 65.7987132,4.77777778 C65.7987132,6.22222222 65.261142,7.33333333 64.4010281,8 C63.4334,8.66666667 62.4657718,8.77777778 61.3906295,8.77777778 L60.8530583,8.77777778 L59.1328305,8.77777778 L59.1328305,0.777777778 L59.1328305,0.777777778 Z M61.6056579,7.22222222 C63.3258857,7.22222222 64.0784854,6.44444444 64.0784854,4.66666667 C64.0784854,2.88888889 63.2183715,2.11111111 61.6056579,2.11111111 L60.745544,2.11111111 L60.745544,7.22222222 L61.6056579,7.22222222 L61.6056579,7.22222222 Z" id="Shape"></path>
                <path d="M67.1963983,0.777777778 L71.7119962,0.777777778 L71.7119962,2.22222222 L68.8091118,2.22222222 L68.8091118,3.88888889 L71.7119962,3.88888889 L71.7119962,5.33333333 L68.8091118,5.33333333 L68.8091118,7.33333333 L71.7119962,7.33333333 L71.7119962,8.77777778 L67.1963983,8.77777778 L67.1963983,0.777777778 L67.1963983,0.777777778 Z" id="Shape"></path>
                <path d="M83.1085054,5.11111111 C83.3235339,5.77777778 83.4310481,6.44444444 83.5385623,7 C83.5385623,6.33333333 83.6460766,5.66666667 83.7535908,5.11111111 L84.7212189,0.777777778 L86.3339325,0.777777778 L84.291162,8.66666667 L82.7859627,8.66666667 L81.3882776,3.55555556 C81.2807634,3.22222222 81.1732491,2.77777778 81.1732491,2.11111111 C81.1732491,2.66666667 81.0657349,3.11111111 80.9582206,3.55555556 L79.5605356,8.66666667 L77.947822,8.66666667 L75.9050515,0.777777778 L77.517765,0.777777778 L78.4853932,5.22222222 C78.5929074,5.77777778 78.7004217,6.33333333 78.7004217,7 C78.8079359,6.22222222 78.9154501,5.66666667 79.1304786,5.11111111 L80.205621,0.777777778 L81.8183345,0.777777778 L83.1085054,5.11111111 L83.1085054,5.11111111 Z" id="Shape"></path>
                <path d="M87.4090749,0.777777778 L91.9246728,0.777777778 L91.9246728,2.22222222 L89.0217884,2.22222222 L89.0217884,3.88888889 L91.9246728,3.88888889 L91.9246728,5.33333333 L89.0217884,5.33333333 L89.0217884,7.33333333 L91.9246728,7.33333333 L91.9246728,8.77777778 L87.4090749,8.77777778 L87.4090749,0.777777778 L87.4090749,0.777777778 Z" id="Shape"></path>
                <path d="M93.5373864,0.777777778 L94.6125288,0.777777778 L94.9350715,0.777777778 C96.0102139,0.777777778 96.7628135,0.777777778 97.4078989,1.22222222 C97.9454701,1.55555556 98.3755271,2.11111111 98.3755271,2.88888889 C98.3755271,3.77777778 97.8379559,4.44444444 96.7628135,4.55555556 C98.0529844,4.77777778 98.6980698,5.44444444 98.6980698,6.44444444 C98.6980698,7.22222222 98.2680128,7.88888889 97.7304416,8.22222222 C96.977842,8.66666667 96.0102139,8.66666667 94.8275572,8.66666667 L94.6125288,8.66666667 L93.5373864,8.66666667 L93.5373864,0.777777778 L93.5373864,0.777777778 Z M95.5801569,3.88888889 C96.4402708,3.88888889 96.977842,3.66666667 96.977842,3 C96.977842,2.33333333 96.547785,2.11111111 95.6876711,2.11111111 L95.2576142,2.11111111 L95.2576142,4 L95.5801569,4 L95.5801569,3.88888889 Z M95.9026996,7.33333333 C96.7628135,7.33333333 97.1928705,7 97.1928705,6.22222222 C97.1928705,5.55555556 96.7628135,5.22222222 96.0102139,5.22222222 L95.3651284,5.22222222 L95.3651284,7.33333333 L95.9026996,7.33333333 L95.9026996,7.33333333 Z" id="Shape"></path>
                <path d="M2.79537017,14.1111111 L6.55836847,14.1111111 L6.55836847,14.7777778 L3.44045559,14.7777778 L3.44045559,17.2222222 L6.45085423,17.2222222 L6.45085423,17.8888889 L3.44045559,17.8888889 L3.44045559,22 L2.79537017,22 L2.79537017,14.1111111 L2.79537017,14.1111111 Z" id="Shape"></path>
                <path d="M15.0519932,21 C14.2993936,21.7777778 13.2242512,22.2222222 12.1491088,22.2222222 C11.0739664,22.2222222 9.99882406,21.7777778 9.2462244,21 C8.49362474,20.2222222 8.06356779,19.2222222 8.06356779,18.1111111 C8.06356779,17 8.49362474,15.8888889 9.2462244,15.1111111 C9.99882406,14.3333333 10.9664522,13.8888889 12.1491088,13.8888889 C13.2242512,13.8888889 14.2993936,14.3333333 15.0519932,15.1111111 C15.8045929,15.8888889 16.2346498,17 16.2346498,18.1111111 C16.2346498,19.2222222 15.8045929,20.2222222 15.0519932,21 L15.0519932,21 Z M15.4820502,18.1111111 C15.4820502,16.1111111 13.9768508,14.5555556 12.1491088,14.5555556 C10.3213668,14.5555556 8.81616745,16.1111111 8.81616745,18.1111111 C8.81616745,20.1111111 10.3213668,21.6666667 12.1491088,21.6666667 C13.9768508,21.5555556 15.4820502,20 15.4820502,18.1111111 L15.4820502,18.1111111 Z" id="Shape"></path>
                <path d="M18.7074773,14.1111111 L18.7074773,19.3333333 C18.7074773,20.8888889 19.3525627,21.6666667 20.857762,21.6666667 C22.2554471,21.6666667 22.9005325,20.8888889 22.9005325,19.3333333 L22.9005325,14.1111111 L23.545618,14.1111111 L23.545618,19.1111111 C23.545618,21.2222222 22.6855041,22.3333333 20.7502478,22.3333333 C18.9225058,22.3333333 17.9548776,21.3333333 17.9548776,19.1111111 L17.9548776,14.1111111 L18.7074773,14.1111111 L18.7074773,14.1111111 Z" id="Shape"></path>
                <path d="M25.6959027,13.7777778 L31.1791288,20.4444444 L31.1791288,14.1111111 L31.8242142,14.1111111 L31.8242142,22.3333333 L26.3409881,15.6666667 L26.3409881,22.1111111 L25.6959027,22.1111111 L25.6959027,13.7777778 L25.6959027,13.7777778 Z" id="Shape"></path>
                <path d="M33.974499,14.1111111 L35.1571556,14.1111111 C36.4473264,14.1111111 37.5224688,14.1111111 38.2750685,14.6666667 C39.2426966,15.3333333 39.887782,16.5555556 39.887782,18.1111111 C39.887782,19.5555556 39.4577251,20.6666667 38.5976112,21.3333333 C37.7374973,22 36.7698691,22.1111111 35.4796983,22.1111111 L35.1571556,22.1111111 L33.974499,22.1111111 L33.974499,14.1111111 L33.974499,14.1111111 Z M35.2646698,21.4444444 L35.6947268,21.4444444 C36.6623549,21.4444444 37.4149546,21.4444444 37.9525257,21 C38.7051254,20.4444444 39.1351824,19.4444444 39.1351824,18.1111111 C39.1351824,17 38.8126396,16.1111111 38.3825827,15.5555556 C37.629983,14.7777778 36.7698691,14.6666667 35.4796983,14.6666667 L35.2646698,14.6666667 L34.6195844,14.6666667 L34.6195844,21.3333333 L35.2646698,21.3333333 L35.2646698,21.4444444 Z" id="Shape"></path>
                <path d="M43.7582946,13.7777778 L46.9837217,22 L46.231122,22 L45.2634939,19.3333333 L42.145581,19.3333333 L41.1779529,22 L40.4253532,22 L43.7582946,13.7777778 L43.7582946,13.7777778 Z M45.0484654,18.7777778 L43.7582946,15.3333333 L42.3606095,18.7777778 L45.0484654,18.7777778 L45.0484654,18.7777778 Z" id="Shape"></path>
                <path d="M48.9189779,14.7777778 L46.7686932,14.7777778 L46.7686932,14.1111111 L51.7143481,14.1111111 L51.7143481,14.7777778 L49.5640634,14.7777778 L49.5640634,22 L48.9189779,22 L48.9189779,14.7777778 L48.9189779,14.7777778 Z" id="Shape"></path>
                <path d="M53.1120332,14.1111111 L53.8646329,14.1111111 L53.8646329,22 L53.1120332,22 L53.1120332,14.1111111 L53.1120332,14.1111111 Z" id="Shape"></path>
                <path d="M62.5732861,21 C61.8206864,21.7777778 60.745544,22.2222222 59.6704017,22.2222222 C58.5952593,22.2222222 57.5201169,21.7777778 56.7675173,21 C56.0149176,20.2222222 55.5848607,19.2222222 55.5848607,18.1111111 C55.5848607,17 56.0149176,15.8888889 56.7675173,15.1111111 C57.5201169,14.3333333 58.4877451,13.8888889 59.6704017,13.8888889 C60.745544,13.8888889 61.8206864,14.3333333 62.5732861,15.1111111 C63.3258857,15.8888889 63.7559427,17 63.7559427,18.1111111 C63.7559427,19.2222222 63.3258857,20.2222222 62.5732861,21 L62.5732861,21 Z M63.1108573,18.1111111 C63.1108573,16.1111111 61.6056579,14.5555556 59.7779159,14.5555556 C57.9501739,14.5555556 56.4449745,16.1111111 56.4449745,18.1111111 C56.4449745,20.1111111 57.9501739,21.6666667 59.7779159,21.6666667 C61.6056579,21.5555556 63.1108573,20 63.1108573,18.1111111 L63.1108573,18.1111111 Z" id="Shape"></path>
                <path d="M65.5836847,13.7777778 L71.0669108,20.4444444 L71.0669108,14.1111111 L71.7119962,14.1111111 L71.7119962,22.3333333 L66.2287701,15.6666667 L66.2287701,22.1111111 L65.5836847,22.1111111 L65.5836847,13.7777778 L65.5836847,13.7777778 Z" id="Shape"></path>
            </g>
        </g>
    </g>
</svg>